<svg id="Capa_1" enable-background="new 0 0 512 512" height="512" viewBox="0 0 512 512" width="512" xmlns="http://www.w3.org/2000/svg" xmlns:xlink="http://www.w3.org/1999/xlink"><linearGradient id="SVGID_1_" gradientUnits="userSpaceOnUse" x1="514.782" x2="-122.414" y1="-43.218" y2="593.979"><stop offset=".0023" stop-color="#ffc599"/><stop offset=".992" stop-color="#ffe8dc" stop-opacity="0"/></linearGradient><linearGradient id="lg1"><stop offset="0" stop-color="#ff4d4d" stop-opacity=".4"/><stop offset="1" stop-color="#ff4d4d" stop-opacity="0"/></linearGradient><linearGradient id="SVGID_2_" gradientUnits="userSpaceOnUse" x1="271.101" x2="271.101" xlink:href="#lg1" y1="478.763" y2="341.073"/><linearGradient id="SVGID_3_" gradientUnits="userSpaceOnUse" x1="204.695" x2="204.695" xlink:href="#lg1" y1="250.85" y2="52.253"/><g><path d="m428.41 171.888c-8.355-8.355-18.026-14.923-28.716-19.765-28.021-12.69-50.052-35.408-62.434-63.565-22.918-52.113-74.976-88.512-135.547-88.558-79.311-.06-145.162 63.163-148.147 142.418-1.277 33.922 8.857 65.421 26.87 90.969 22.877 32.448 28.821 73.782 17.021 111.69-16.764 53.857-10.919 104.898 20.973 136.791 55.888 55.888 170.586 31.803 256.185-53.795 85.598-85.599 109.683-200.296 53.795-256.185z" fill="url(#SVGID_1_)"/><g><g><g><g><g><path d="m388.678 75.82-15.097 5.658c-1.916.718-4.051-.253-4.769-2.169l-3.326-8.873-18.856 41.465c-.847 1.863-3.044 2.686-4.906 1.839l-44.735-20.343c-1.557-.708-2.245-2.544-1.537-4.1l19.108-42.019-9.443 3.539c-1.601.6-3.386-.211-3.986-1.813l-6.086-16.236c-.6-1.601.211-3.386 1.813-3.986l30.276-11.348c.769-.288 1.621-.259 2.368.081l9.465 4.304c1.095.498 1.801 1.586 1.809 2.789.039 5.608 3.269 10.956 8.711 13.431s11.596 1.394 15.848-2.263c.912-.785 2.196-.967 3.291-.47l9.236 4.2c.894.407 1.591 1.152 1.935 2.072l11.046 29.471c.722 1.917-.249 4.053-2.165 4.771z" fill="#ff4d4d"/></g><g><path d="m337.515 158.405-50.322 145.813c-1.069 3.097.575 6.474 3.673 7.543l25.7 8.869c3.097 1.069 6.475-.575 7.543-3.673l33.127-95.988c1.8-5.216 7.488-7.985 12.703-6.185 5.216 1.8 7.985 7.488 6.185 12.703l-33.126 95.988c-1.069 3.097.575 6.475 3.673 7.543l25.7 8.869c3.097 1.069 6.475-.575 7.543-3.673l50.322-145.812c1.069-3.097-.575-6.475-3.673-7.544l-81.504-28.128c-3.097-1.066-6.475.578-7.544 3.675z" fill="#9494ff"/><path d="m380.846 167.08c-6.33 8.99-16.79 14.87-28.62 14.87-7.68 0-14.78-2.47-20.54-6.66l5.83-16.88c1.07-3.1 4.45-4.75 7.54-3.68z" fill="#8383ff"/><path d="m430.236 190.4-3.55 10.29-61.5-21.22-31.22-10.78 3.55-10.28c1.07-3.1 4.45-4.75 7.54-3.68l35.79 12.35 45.72 15.78c3.09 1.07 4.74 4.45 3.67 7.54z" fill="#d9d9ff"/><path d="m380.846 167.08c-3.88 5.51-9.31 9.85-15.66 12.39l-31.22-10.78 3.55-10.28c1.07-3.1 4.45-4.75 7.54-3.68z" fill="#b3b3ff"/><path d="m291.064 293.001-3.871 11.216c-1.069 3.097.575 6.474 3.673 7.543l25.7 8.869c3.097 1.069 6.475-.575 7.543-3.673l3.871-11.216z" fill="#d9d9ff"/><path d="m346.869 312.26-3.871 11.216c-1.069 3.097.575 6.475 3.673 7.543l25.7 8.869c3.097 1.069 6.475-.575 7.543-3.673l3.871-11.215z" fill="#d9d9ff"/><path d="m404.465 193.019c-3.047 9.624-.899 20.144 5.747 27.79l6.818 7.85 9.654-27.973z" fill="#6c6cff"/><path d="m356.186 176.36c-.74 1.97-1.68 3.84-2.8 5.57-4.23 6.57-11 11.24-18.87 12.76l-10.2 1.97 7.37-21.37 2.28-6.6z" fill="#6c6cff"/><path d="m356.186 176.36c-.74 1.97-1.68 3.84-2.8 5.57-.38.01-.77.02-1.16.02-7.68 0-14.78-2.47-20.54-6.66l2.28-6.6z" fill="#4d4dff"/><path d="m362.016 180.372-5.328-1.839c-.619-.214-.948-.889-.735-1.509l5.715-16.56 7.571 2.613-5.715 16.56c-.213.62-.888.949-1.508.735z" fill="#9494ff"/><path d="m402.725 194.421-5.328-1.839c-.619-.214-.948-.889-.734-1.509l5.715-16.56 7.571 2.613-5.715 16.56c-.214.62-.889.949-1.509.735z" fill="#b3b3ff"/></g><g><g><path d="m285.406 128.23-20.46-10.33 30.67 93.33c.79 2.4-.52 5-2.93 5.79l-102.23 33.6c-2.41.79-5-.52-5.8-2.93l-30.67-93.33-10.34 20.46c-1.14 2.27-3.9 3.17-6.17 2.03l-35.65-18.02c-2.26-1.14-3.17-3.9-2.03-6.16l9.5-18.81 22.14-43.81c.55-1.08 1.51-1.91 2.67-2.29l5.34-1.75 17.17-5.64c1.72-.57 3.64-.09 4.83 1.28 7.95 9.14 20.88 13.14 33.11 9.12s20.27-14.92 21.25-26.98c.14-1.81 1.41-3.34 3.13-3.91l22.51-7.4c1.16-.38 2.42-.28 3.5.27l62.62 31.64c2.26 1.14 3.17 3.9 2.02 6.16l-18.01 35.66c-1.15 2.26-3.91 3.17-6.17 2.02z" fill="#ff9d33"/><path d="m141.936 98.97c0 18.54-14.42 33.69-32.64 34.89l22.14-43.81c.55-1.08 1.51-1.91 2.67-2.29l5.34-1.75c1.61 4.01 2.49 8.38 2.49 12.96z" fill="#ff8b00"/></g><g fill="#fff"><path d="m191.735 158.024c-4.962 0-9.59-3.155-11.222-8.118l-5.138-15.635c-.984-2.994-.744-6.193.678-9.007 1.421-2.814 3.854-4.906 6.849-5.89l5.065-1.665c6.181-2.032 12.866 1.345 14.897 7.528l5.138 15.634c2.032 6.183-1.345 12.866-7.527 14.898-2.291.682-6.355 2.398-8.74 2.255zm-.083-30.906c-.173 0-.362.025-.562.091l-5.065 1.664c-1.124.564-1.363 1.036-1.149 2.275l5.138 15.635c.31.945 1.334 1.459 2.275 1.15l5.065-1.665c.944-.311 1.46-1.331 1.149-2.275l-5.138-15.634c-.454-.981-.816-1.13-1.713-1.241z"/><path d="m220.982 148.303c-1.524.001-2.999-.698-3.964-1.951-1.294-1.682-1.385-3.997-.229-5.776 3.526-5.422 8.628-14.89 8.932-18.964.117-1.566-.473-3.057-1.539-3.891-.83-.649-1.794-.797-2.869-.445-1.803.593-2.788 2.542-2.195 4.345.862 2.623-.566 5.449-3.189 6.311s-5.45-.565-6.311-3.189c-2.314-7.041 1.532-14.653 8.573-16.967 4.256-1.397 8.684-.644 12.153 2.068 3.717 2.907 5.717 7.584 5.35 12.51-.264 3.533-1.994 8.02-3.996 12.163l4.925-1.619c2.621-.862 5.448.565 6.311 3.189.862 2.624-.565 5.449-3.189 6.311l-17.203 5.654c-.513.17-1.04.251-1.56.251z"/></g></g></g><g><path d="m403.381 341.073-30.07 129.95c-1.05 4.53-5.09 7.74-9.75 7.74h-184.92c-4.66 0-8.7-3.21-9.75-7.74l-30.07-129.95z" fill="#ff4d4d"/><path d="m403.381 341.073h-264.56l5.06 21.86h49.31l-40.05 40.05 7.87 33.97 74.02-74.02h72.14l74.02 74.02 7.87-33.97-40.05-40.05h49.31z" fill="#ff2c2c"/><g><path d="m202.261 384.416v51c0 2.77-2.24 5-5 5s-5-2.23-5-5v-51c0-2.76 2.24-5 5-5s5 2.24 5 5z" fill="#fff"/><path d="m202.261 384.416v11.29l-10 10v-21.29c0-2.76 2.24-5 5-5s5 2.24 5 5z" fill="#ffd9d9"/><g fill="#fff"><path d="m234.182 379.42c2.761 0 5 2.238 5 5v51c0 2.762-2.239 5-5 5s-5-2.238-5-5v-51c0-2.762 2.239-5 5-5"/><path d="m271.101 379.42c2.761 0 5 2.238 5 5v51c0 2.762-2.239 5-5 5s-5-2.238-5-5v-51c0-2.762 2.238-5 5-5"/><path d="m308.019 379.42c2.761 0 5 2.238 5 5v51c0 2.762-2.239 5-5 5s-5-2.238-5-5v-51c0-2.762 2.239-5 5-5"/><path d="m349.941 384.416v51c0 2.77-2.24 5-5 5s-5-2.23-5-5v-51c0-2.76 2.24-5 5-5s5 2.24 5 5z"/></g><path d="m349.941 384.416v21.29l-10-10v-11.29c0-2.76 2.24-5 5-5s5 2.24 5 5z" fill="#ffd9d9"/></g><path d="m403.381 341.073-30.07 129.95c-1.05 4.53-5.09 7.74-9.75 7.74h-184.92c-4.66 0-8.7-3.21-9.75-7.74l-30.07-129.95z" fill="url(#SVGID_2_)"/><path d="m408.859 348.936h-275.517c-5.523 0-10-4.477-10-10v-43.331c0-5.523 4.477-10 10-10h275.518c5.523 0 10 4.477 10 10v43.331c-.001 5.523-4.478 10-10.001 10z" fill="#ff6c6c"/><g fill="#ffab66"><path d="m417.953 431.869c-6.087 6.087-15.956 6.087-22.042 0l-101.02-101.019c-6.087-6.087-6.087-15.956 0-22.042 6.087-6.087 15.956-6.087 22.042 0l101.019 101.019c6.087 6.087 6.087 15.956.001 22.042z"/><path d="m247.31 308.808c-6.087-6.087-15.956-6.087-22.042 0l-101.019 101.019c-6.087 6.087-6.087 15.956 0 22.042 6.087 6.087 15.955 6.087 22.042 0l101.019-101.019c6.087-6.087 6.087-15.955 0-22.042z"/></g></g></g><g><ellipse cx="106.963" cy="87.227" fill="#ff4d4d" rx="34.972" ry="34.972" transform="matrix(.16 -.987 .987 .16 3.729 178.837)"/><g fill="#fff"><path d="m106.963 103.972c-2.761 0-5-2.239-5-5v-23.49c0-2.761 2.239-5 5-5s5 2.239 5 5v23.489c0 2.762-2.239 5.001-5 5.001z"/><path d="m118.707 92.227h-23.489c-2.761 0-5-2.239-5-5s2.239-5 5-5h23.489c2.761 0 5 2.239 5 5s-2.238 5-5 5z"/></g></g><g><ellipse cx="352.222" cy="134.572" fill="#ff9d33" rx="34.972" ry="34.972" transform="matrix(.34 -.94 .94 .34 105.783 419.945)"/><g fill="#ff8b00"><path d="m307.661 316.549c-2.761 0-5 2.239-5 5v.115c0 2.761 2.239 5 5 5s5-2.239 5-5v-.115c0-2.761-2.239-5-5-5z"/><path d="m234.54 316.549c-2.761 0-5 2.239-5 5v.115c0 2.761 2.239 5 5 5s5-2.239 5-5v-.115c0-2.761-2.239-5-5-5z"/></g><g fill="#fff"><path d="m352.223 151.316c-2.761 0-5-2.239-5-5v-23.489c0-2.761 2.239-5 5-5s5 2.239 5 5v23.489c0 2.761-2.239 5-5 5z"/><path d="m363.967 139.571h-23.489c-2.761 0-5-2.239-5-5s2.239-5 5-5h23.489c2.761 0 5 2.239 5 5s-2.238 5-5 5z"/></g></g></g><path d="m130.727 231.727c-1.28 0-2.559-.488-3.536-1.464-1.953-1.953-1.953-5.119 0-7.071l10-10c1.953-1.952 5.118-1.952 7.071 0 1.953 1.953 1.953 5.119 0 7.071l-10 10c-.976.975-2.255 1.464-3.535 1.464z" fill="#ff9d33"/><path d="m430.009 392.413c-1.28 0-2.559-.488-3.536-1.464-1.953-1.953-1.953-5.119 0-7.071l10-10c1.953-1.952 5.118-1.952 7.071 0 1.953 1.953 1.953 5.119 0 7.071l-10 10c-.976.975-2.255 1.464-3.535 1.464z" fill="#ff6c6c"/><g><path d="m258.105 27.237c-1.28 0-2.559-.488-3.536-1.464l-6.464-6.464-6.464 6.464c-1.953 1.952-5.118 1.952-7.071 0-1.953-1.953-1.953-5.119 0-7.071l10-10c1.953-1.952 5.118-1.952 7.071 0l10 10c1.953 1.953 1.953 5.119 0 7.071-.976.976-2.256 1.464-3.536 1.464z" fill="#6c6cff"/></g><g><path d="m435.009 153.199c-1.28 0-2.559-.488-3.536-1.464l-6.464-6.464-6.464 6.464c-1.953 1.952-5.118 1.952-7.071 0-1.953-1.953-1.953-5.119 0-7.071l10-10c1.953-1.952 5.118-1.952 7.071 0l10 10c1.953 1.953 1.953 5.119 0 7.071-.977.975-2.256 1.464-3.536 1.464z" fill="#ff6c6c"/></g><g><path d="m104.928 374.051c-1.28 0-2.559-.488-3.536-1.464l-6.464-6.464-5.884 5.884c-1.953 1.952-5.118 1.952-7.071 0-1.953-1.953-1.953-5.119 0-7.071l9.419-9.419c1.953-1.952 5.118-1.952 7.071 0l10 10c1.953 1.953 1.953 5.119 0 7.071-.976.975-2.256 1.463-3.535 1.463z" fill="#ff6c6c"/></g></g><path d="m285.406 128.23-20.46-10.33 30.67 93.33c.79 2.4-.52 5-2.93 5.79l-102.23 33.6c-2.41.79-5-.52-5.8-2.93l-30.67-93.33-10.34 20.46c-1.14 2.27-3.9 3.17-6.17 2.03l-35.65-18.02c-2.26-1.14-3.17-3.9-2.03-6.16l9.5-18.81 22.14-43.81c.55-1.08 1.51-1.91 2.67-2.29l5.34-1.75 17.17-5.64c1.72-.57 3.64-.09 4.83 1.28 7.95 9.14 20.88 13.14 33.11 9.12s20.27-14.92 21.25-26.98c.14-1.81 1.41-3.34 3.13-3.91l22.51-7.4c1.16-.38 2.42-.28 3.5.27l62.62 31.64c2.26 1.14 3.17 3.9 2.02 6.16l-18.01 35.66c-1.15 2.26-3.91 3.17-6.17 2.02z" fill="url(#SVGID_3_)"/></g></svg>